<?xml version="1.0" encoding="utf-8"?>
<!-- Generator: Adobe Illustrator 20.1.0, SVG Export Plug-In . SVG Version: 6.00 Build 0)  -->
<svg version="1.1" id="圖層_1" xmlns="http://www.w3.org/2000/svg" xmlns:xlink="http://www.w3.org/1999/xlink" x="0px" y="0px"
	 viewBox="0 0 130 36" style="enable-background:new 0 0 130 36;" xml:space="preserve">
<style type="text/css">
	.st0{fill-rule:evenodd;clip-rule:evenodd;fill:#999999;}
</style>
<g>
	<path class="st0" d="M27,29.2c-2.4,0.7-4.4,1-6.2,1c-3.1,0-5.5-0.8-7.1-2.5c-1.7-1.7-2.5-4.1-2.5-7.3c0-3.1,0.8-5.5,2.5-7.2
		c1.7-1.7,4-2.6,7.1-2.6c2,0,4,0.3,6.1,0.8v2.5c-2.7-0.9-4.7-1.3-6.2-1.3c-2.1,0-3.7,0.7-4.9,2.1c-1.2,1.4-1.7,3.3-1.7,5.8
		c0,2.5,0.6,4.4,1.9,5.8c1.2,1.4,3,2.1,5.2,2.1c0.9,0,1.9-0.2,3-0.5v-6.1H27V29.2z"/>
	<polygon class="st0" points="60.9,30.1 60.9,10.8 63.4,10.8 72.8,25.7 72.8,10.8 75,10.8 75,30.1 72.4,30.1 63.1,15.2 63.1,30.1 	
		"/>
	<rect x="87.5" y="10.8" class="st0" width="2.7" height="19.3"/>
	<path class="st0" d="M117.8,28.8c-1.9,1-3.9,1.4-6.1,1.4c-2.9,0-5.2-0.9-6.8-2.6c-1.6-1.7-2.4-4.1-2.4-7.3c0-3.1,0.8-5.5,2.4-7.3
		c1.6-1.7,3.9-2.6,6.9-2.6c1.7,0,3.7,0.3,5.9,0.8v2.5c-2.6-0.9-4.6-1.3-6-1.3c-2.1,0-3.6,0.7-4.8,2.1c-1.1,1.4-1.7,3.3-1.7,5.8
		c0,2.4,0.6,4.3,1.8,5.6c1.2,1.4,2.8,2.1,4.9,2.1c1.8,0,3.7-0.5,5.7-1.6V28.8z"/>
	<polygon class="st0" points="39.6,10.7 42.1,10.7 48.3,10.7 48.3,12.7 42.1,12.7 42.1,19.1 48.3,19.1 48.3,21.1 42.1,21.1 42.1,28 
		48.3,28 48.3,30.1 42.1,30.1 42.1,30.1 39.6,30.1 39.6,10.7 	"/>
</g>
</svg>
