<svg xmlns="http://www.w3.org/2000/svg" viewBox="0 0 22.93 22.93"><defs><style>.cls-1{fill:#999;}</style></defs><title>資產 1</title><g id="圖層_2" data-name="圖層 2"><g id="圖層_1-2" data-name="圖層 1"><path class="cls-1" d="M11.46,0h0A11.45,11.45,0,0,1,22.93,11.46h0A11.46,11.46,0,0,1,11.46,22.93h0A11.45,11.45,0,0,1,0,11.47H0A11.45,11.45,0,0,1,11.46,0h0Zm2.29,15.39h.12a1.78,1.78,0,0,0,1.31-.48,1.94,1.94,0,0,0,.49-1.44V2.9a9.49,9.49,0,0,0-4.21-1h0a9.49,9.49,0,0,0-4,.88V8.7A3.53,3.53,0,0,1,8.62,8a3.57,3.57,0,0,1,1.31-.25,3.68,3.68,0,0,1,2,.5,3.83,3.83,0,0,1,1.61,3.36l0,2.67L10.1,16.81V12a1.24,1.24,0,0,0-.42-1.07,1.42,1.42,0,0,0-1.78,0A1.25,1.25,0,0,0,7.47,12v8.11a9.49,9.49,0,0,0,4,.88h0A9.55,9.55,0,0,0,21,11.46h0a9.5,9.5,0,0,0-2-5.79v7.87a4.8,4.8,0,0,1-.73,2.69A4.57,4.57,0,0,1,16.4,17.9a5.94,5.94,0,0,1-2.53.55,6.39,6.39,0,0,1-1.45-.13,5.24,5.24,0,0,1-1.64-.67l3-2.26ZM4,17.46v-12a9.5,9.5,0,0,0-2.12,6h0A9.5,9.5,0,0,0,4,17.46Z"/></g></g></svg>