<?xml version="1.0" encoding="utf-8"?>
<!-- Generator: Adobe Illustrator 20.1.0, SVG Export Plug-In . SVG Version: 6.00 Build 0)  -->
<svg version="1.1" id="圖層_1" xmlns="http://www.w3.org/2000/svg" xmlns:xlink="http://www.w3.org/1999/xlink" x="0px" y="0px"
	 viewBox="0 0 130 36" style="enable-background:new 0 0 130 36;" xml:space="preserve">
<style type="text/css">
	.st0{fill-rule:evenodd;clip-rule:evenodd;fill:#999999;}
	.st1{fill:#999999;}
</style>
<g>
	<path class="st0" d="M103.1,21.4c0.1-0.1,0.2-0.1,0.3-0.2c0.1-0.1,0.3-0.2,0.4-0.3c0.1-0.1,0.2-0.2,0.3-0.3
		c0.1-0.1,0.2-0.3,0.4-0.4c0.1-0.1,0.2-0.3,0.2-0.4l0.1-0.2c0.1-0.3,0.2-0.6,0.2-0.9c0-0.1,0-0.1,0-0.2c0-0.2-0.1-0.3-0.1-0.5
		l-0.1-0.2l-0.1-0.2c-0.1-0.1-0.1-0.2-0.2-0.3c-0.1-0.1-0.1-0.2-0.2-0.2c-0.1-0.1-0.2-0.2-0.3-0.2c-0.2-0.1-0.3-0.2-0.5-0.3
		c-0.1,0-0.2-0.1-0.3-0.1v-3.2l0.2,0l0.2,0c0.5,0.1,1,0.3,1.4,0.5c0.2,0.1,0.4,0.2,0.6,0.4c0.2,0.1,0.4,0.3,0.6,0.5
		c0.2,0.2,0.4,0.4,0.5,0.6c0.1,0.2,0.2,0.3,0.3,0.5c0.1,0.2,0.2,0.3,0.3,0.5c0,0.1,0.1,0.2,0.1,0.3c0.1,0.2,0.1,0.5,0.2,0.8
		c0,0.4,0,0.8,0,1.1c0,0.3,0,0.6-0.1,0.9c-0.1,0.5-0.2,1-0.4,1.4c-0.1,0.3-0.2,0.6-0.4,0.8c-0.1,0.2-0.3,0.4-0.4,0.6
		c-0.2,0.2-0.3,0.4-0.5,0.5c-0.2,0.2-0.4,0.3-0.6,0.4c-0.2,0.1-0.4,0.2-0.6,0.3l-0.2,0.1l0.1,0.4c0.1,0.4,0.3,0.7,0.4,1
		c0.1,0.3,0.3,0.5,0.4,0.7c0.1,0.2,0.3,0.4,0.4,0.6c0.2,0.2,0.3,0.4,0.5,0.6l0.1,0.1l0.1,0.1l0.2,0.1l0.2,0l0.2,0l0.2,0l0.2,0l0.2,0
		l0.2-0.1l0.5-0.1c0.3-0.1,0.5-0.2,0.7-0.3c0.8-0.3,1.6-0.6,2.3-0.9l0.5-0.2c0.3-0.1,0.7-0.2,1-0.2l-1.4,2.6l-0.2,0l-0.2,0l-0.2,0
		l-0.2,0l-0.2,0l-0.5,0.1c-0.3,0.1-0.5,0.2-0.8,0.3c-0.8,0.3-1.6,0.6-2.4,0.9l-0.5,0.2c-0.2,0.1-0.4,0.1-0.7,0.2l-0.2,0l-0.2,0
		l-0.2,0l-0.1,0l-0.1,0l-0.1,0l-0.1,0c-0.2-0.2-0.3-0.3-0.5-0.5c-0.1-0.1-0.2-0.3-0.4-0.4c-0.1-0.1-0.2-0.3-0.3-0.4
		c-0.1-0.2-0.2-0.3-0.3-0.5l0-0.1V21.4z M101.3,16.5v4.9c0.1,0,0.1,0.1,0.2,0.1c0.2,0.1,0.4,0.1,0.6,0.2c0.1,0,0.2,0,0.3,0
		c0.1,0,0.2,0,0.3-0.1c0.1,0,0.2-0.1,0.3-0.1l0.1,0v6.5c-0.1-0.1-0.2-0.3-0.2-0.4c-0.1-0.2-0.2-0.3-0.3-0.5
		c-0.1-0.2-0.2-0.3-0.2-0.5c-0.1-0.2-0.1-0.4-0.2-0.5c-0.1-0.2-0.1-0.4-0.2-0.6c0-0.2-0.1-0.4-0.1-0.6l-0.6-3.1l0.6,10.4L98.5,32
		l0.6-15.9L97.1,17l-0.1-3.1l3.8-0.7c0.1,0,0.3,0,0.4,0c0.4,0,0.9,0,1.3,0c0.2,0,0.4,0,0.6,0.1v3.2c-0.1,0-0.2,0-0.2-0.1
		c-0.3-0.1-0.6-0.1-0.9-0.1c-0.2,0-0.3,0.1-0.5,0.1L101.3,16.5z"/>
	<path class="st1" d="M85.9,22.3l0.9-0.2l-0.9-3v-4.4l5.2,12.1l-3,1.3l-0.9-4.5L85.9,24V22.3L85.9,22.3z M85.9,30.7v-1.7l0.3,1.7
		L85.9,30.7z M85.3,17.4L85,22.5l0.9-0.2V24l-1,0.2l1,4.9v1.7l-2.4-0.2l-0.9-5.9l-0.7,0.2l0.1-1.7l0.9-0.3l1-7.5l2-0.5l0,0v4.4
		L85.3,17.4z"/>
	<polygon class="st0" points="68.4,10.4 70,10.3 70.5,20.6 76.1,19.6 75.2,8.6 77.6,8.3 80.8,33.7 76.8,32.3 76.1,21.2 70.8,22.3 
		70.9,26.8 67.2,32.3 63.3,32.3 67.2,26.9 67.4,23 65.7,23.5 65.9,21.8 67.6,21.3 	"/>
	<path class="st0" d="M49.5,21L49.3,21l-0.2,0.1L49,21.3c-0.1,0.1-0.2,0.2-0.3,0.3c-0.3,0.4-0.5,0.8-0.6,1.2c0,0.1-0.1,0.3-0.1,0.4
		c0,0.1,0,0.2,0,0.3c0,0.1,0,0.2,0,0.3c0,0.1,0,0.1,0.1,0.2c0,0.1,0.1,0.1,0.1,0.2c0,0,0.1,0.1,0.1,0.1c0,0,0.1,0.1,0.2,0.1
		c0.1,0,0.1,0.1,0.2,0.1l0.1,0l2.9,0.3c0.2,0,0.3,0.1,0.5,0.2c0.1,0.1,0.2,0.1,0.3,0.2c0.1,0.1,0.2,0.2,0.4,0.3c0,0,0.1,0.1,0.1,0.1
		c0.2,0.2,0.3,0.4,0.3,0.7c0,0.1,0.1,0.2,0.1,0.3c0,0.2,0,0.3,0,0.5c0,0.2,0,0.4-0.1,0.6c0,0.2-0.1,0.5-0.2,0.7
		c-0.1,0.1-0.1,0.3-0.2,0.4c-0.1,0.3-0.3,0.5-0.5,0.8c-0.2,0.2-0.3,0.4-0.5,0.7c-0.2,0.2-0.4,0.4-0.6,0.5c-0.1,0.1-0.3,0.2-0.4,0.3
		c-0.3,0.2-0.6,0.4-1,0.6c-0.1,0-0.2,0.1-0.3,0.1c-0.2,0.1-0.4,0.1-0.6,0.2c-0.2,0-0.4,0-0.5,0c-0.2,0-0.4-0.1-0.6-0.2
		c-0.2-0.1-0.4-0.2-0.6-0.3c-0.2-0.1-0.4-0.3-0.5-0.5c-0.2-0.2-0.4-0.4-0.6-0.7c-0.1-0.2-0.3-0.4-0.4-0.7c-0.1-0.3-0.2-0.5-0.3-0.8
		c-0.1-0.2-0.1-0.5-0.1-0.7c0-0.2,0-0.4,0-0.5l2.2-0.1c0,0.1-0.1,0.2-0.1,0.2c0,0.1,0,0.1,0,0.2c0,0.3-0.1,0.6,0,0.9
		c0,0.1,0,0.2,0.1,0.3c0,0.1,0.1,0.2,0.1,0.3c0.1,0.1,0.1,0.3,0.2,0.4l0.1,0.1c0.1,0.2,0.3,0.3,0.5,0.4c0.1,0.1,0.2,0.1,0.3,0.1
		c0.1,0,0.1,0,0.2,0l0.2,0c0.1,0,0.2,0,0.2,0c0.1,0,0.2,0,0.3-0.1c0.1,0,0.2-0.1,0.3-0.1c0.1-0.1,0.2-0.1,0.3-0.2
		c0.1-0.1,0.2-0.2,0.3-0.3c0.2-0.2,0.3-0.3,0.5-0.5c0.4-0.5,0.8-1.1,1-1.7c0-0.1,0.1-0.2,0.1-0.3c0-0.1,0-0.2,0.1-0.3l0-0.1l0-0.1
		l0-0.1l0-0.1l0-0.1l0-0.1l0-0.1l-0.1-0.1l-0.1-0.1l-0.1-0.1L52,26.3l-0.1,0l-0.1,0l-0.1,0l-3.6-0.3c-0.1,0-0.3-0.1-0.4-0.2
		c-0.1-0.1-0.2-0.1-0.3-0.2c-0.1-0.1-0.1-0.1-0.2-0.2c-0.1-0.1-0.2-0.2-0.2-0.3c-0.1-0.1-0.1-0.2-0.2-0.4c-0.2-0.6-0.2-1.2-0.2-1.7
		c0-0.2,0-0.5,0.1-0.7c0-0.1,0.1-0.3,0.1-0.4c0.1-0.3,0.3-0.7,0.5-1c0.2-0.3,0.3-0.6,0.5-0.8l0.1-0.1c0.2-0.3,0.4-0.5,0.7-0.7
		c0.1-0.1,0.2-0.2,0.3-0.2c0.1-0.1,0.2-0.1,0.3-0.1c0.1,0,0.2-0.1,0.4-0.1c0.1,0,0.2,0,0.3,0c0.2,0,0.3,0,0.5,0
		c0.2,0,0.4,0.1,0.6,0.2c0.1,0.1,0.3,0.1,0.4,0.2c0.3,0.1,0.5,0.3,0.8,0.5c0.1,0.1,0.3,0.2,0.4,0.3c0.1,0.1,0.2,0.2,0.4,0.3
		c0.4,0.4,0.7,0.9,0.9,1.5l-1.6,1c0-0.1,0-0.1-0.1-0.2c0-0.1-0.1-0.1-0.1-0.2c-0.1-0.1-0.1-0.1-0.2-0.2c-0.1-0.1-0.2-0.2-0.3-0.3
		c-0.1-0.1-0.1-0.1-0.2-0.2c-0.1-0.1-0.3-0.2-0.4-0.2c-0.1-0.1-0.2-0.1-0.3-0.1c-0.1,0-0.2-0.1-0.3-0.1l-0.2,0l-0.2,0l-0.2,0
		L49.5,21z"/>
	<polygon class="st0" points="31.6,13.3 36.5,13.4 36.5,12.5 37.8,12.4 38,13.4 43.9,13.1 44,14.7 38.3,15.3 37,25.3 38.4,31 
		36.1,30.5 34.9,24.4 36.7,15.4 31.4,16 	"/>
	<polygon class="st0" points="15,8.1 19.1,8.7 18.3,25.4 26.8,27.9 26.3,32.3 23.5,29.2 14.4,28.1 14.2,25.8 15.6,25.6 	"/>
	<polygon class="st1" points="22.3,10.6 28.9,10.1 29,12.1 24.5,12.4 24.8,15.7 28.2,15.3 28.5,17.3 24.9,17.5 24.9,20.2 31.5,19.7 
		31.1,22.9 23.4,22.5 23.2,12.6 22.4,12.5 	"/>
	<path class="st0" d="M49.9,12.4c-0.2,0.3-0.4,1.4-0.5,1.4l-1,0c-0.4,0,0.5,0.6,0.8,0.8c0.5,0.3-0.1,0.6-0.3,0.9
		c-0.1,0.2,0.9-0.4,1.2-0.4c0.2,0,0.4,0.5,0.5,0.7c0.1,0.1,0.4,0.3,0.3,0c-0.1-0.3-0.4-1.1-0.2-1.2c0.1,0,0.9-0.1,0.7-0.3
		c-0.3-0.3-0.6-0.4-1.1-0.4C50.2,13.8,49.9,12.7,49.9,12.4z"/>
	<path class="st0" d="M48.1,15.3c-2,0.6-4.1,4.9-3.7,4.5c0.4-0.5,2-1.8,2.2-2.5C46.8,16.1,47.9,15.5,48.1,15.3z"/>
	<path class="st0" d="M117.2,21.8c-0.1,0.3-0.8,1.1-0.8,1.1l0.6,0.6c0.2,0.2-0.7-0.2-0.9-0.3c-0.3-0.1-0.2,0.1-0.4,0.3
		c-0.1,0.1-0.1,0.2-0.1,0.3c0,0.2,0-0.6-0.2-0.8c-0.1-0.1-0.5-0.1-0.7-0.1c-0.1,0-0.3,0.1-0.1,0.1c0.3-0.1,0.9-0.5,0.9-0.6
		c0,0-0.3-0.6-0.2-0.6c0.3,0,0.5,0.5,0.7,0.8C116.1,22.7,117,22,117.2,21.8z"/>
	<path class="st0" d="M113.4,28.3c-0.4-1.8,1.9-4.9,1.8-4.4C115.2,25,113.4,27.9,113.4,28.3z"/>
	<path class="st0" d="M94,15.1l1.7,0.1L95.2,32L94,31.7v-2.7l1.1-1.7l-0.7-0.2L94,27.9v-2.2l0.5-0.1L94.3,25l0.6,0.2l0.2-0.5
		l-0.7-0.1l0.8-0.6l-0.4-0.2l-0.5,0.4l-0.1-0.6l-0.1,0V22l1.3,0.1l-0.3-0.7l-1,0v-2h0.3l0-0.9l0.8,0.1l0.1-0.8l-0.8,0l0-1.1l-0.3,0
		V15.1z M92.5,15l1.4,0.1v1.7l-0.6,0l0.2,1.1h-0.7l0,0.6l0.8,0.1l0.1,1H94v2l-1.2,0l0,0.5L94,22v1.5l-0.4,0l0.1,0.6L93,24l-0.2,0.4
		l0.6,0.2L93,25.2l0.4,0.2l0.4-0.5l0.1,0.8l0,0v2.2L92.7,30l0.6,0.2l0.7-1.1v2.7l-1.7-0.4L92.5,15z"/>
</g>
</svg>
