<?xml version="1.0" encoding="utf-8"?>
<!-- Generator: Adobe Illustrator 20.1.0, SVG Export Plug-In . SVG Version: 6.00 Build 0)  -->
<svg version="1.1" id="圖層_1" xmlns="http://www.w3.org/2000/svg" xmlns:xlink="http://www.w3.org/1999/xlink" x="0px" y="0px"
	 viewBox="0 0 130 36" style="enable-background:new 0 0 130 36;" xml:space="preserve">
<style type="text/css">
	.st0{fill-rule:evenodd;clip-rule:evenodd;fill:#999999;}
</style>
<g>
	<path class="st0" d="M112,32.3v-0.7l0.1,0c0.7-0.1,1.2-0.2,1.3-0.4c0.1-0.2,0.2-0.8,0.2-1.7V19.3c0-1-0.1-1.6-0.2-1.7
		c-0.1-0.2-0.6-0.3-1.3-0.4l-0.1,0v-0.7h9.2v2.8h-1l0-0.2c0-1-0.1-1.5-0.2-1.6c-0.1-0.1-0.6-0.1-1.5-0.1h-3v6.3l2.5,0
		c0.6,0,0.9,0,1-0.1c0.1-0.1,0.2-0.4,0.2-1l0-0.2h0.7v3.5h-0.7l0-0.2c0-0.5-0.1-0.9-0.2-1c-0.1-0.1-0.5-0.2-1-0.2h-2.5v5
		c0,0.8,0.1,1.3,0.3,1.5c0.2,0.2,0.6,0.3,1.3,0.3h1.5c1.1,0,1.7-0.1,1.8-0.2c0.2-0.1,0.2-0.7,0.3-1.6l0-0.2h1v2.9l0,0H112L112,32.3z
		 M112,11v-0.5h0.6L112,8.7l0,0V8.1h0.3l1.5,4.1h-0.6l-0.4-1.2H112L112,11z M114.3,12.3L114.3,12.3V8.1h0.6v2l2-2h0.7l-1.7,1.7
		l1.7,2.5h-0.7l-1.5-2.1l-0.6,0.6v1.5H114.3L114.3,12.3z M118,12.3L118,12.3V8.1h2.9v0.5h-2.4v1.2h2.2v0.5h-2.2v1.4h2.4v0.5H118z
		 M112,8.1v0.6l-0.6,1.8l0,0h0.6V11h-0.8l-0.4,1.2h-0.4v-0.5l1.3-3.6H112L112,8.1z M112,16.5v0.7l-0.1,0L112,16.5L112,16.5L112,16.5
		z M112,31.7v0.7h-0.1L112,31.7L112,31.7L112,31.7z M110.4,8.4l0.2-0.3h-0.2V8.4z M101.7,8.7v3.5h-0.5V8.1h0.8l1,3.2
		c0,0.1,0.1,0.2,0.1,0.2c0,0.1,0,0.1,0,0.1c0-0.1,0-0.1,0-0.2c0-0.1,0-0.1,0-0.2l1.1-3.2h0.8v4.1h-0.5V8.7c0,0.1,0,0.1,0,0.2
		c0,0.1,0,0.1-0.1,0.2l-1.1,3.2h-0.5l-1-3.2c0-0.1,0-0.1-0.1-0.2C101.8,8.9,101.7,8.8,101.7,8.7L101.7,8.7z M110.4,8.1v0.3l-1.3,2.1
		v1.7l0,0h-0.6v-1.7L107,8.1h0.7l1.1,2l1.1-2H110.4L110.4,8.1z M110.4,11.7l-0.2,0.5l0,0h0.2V11.7L110.4,11.7z M93.9,32.3v-3.7
		l0.3,1c0.4,1,0.6,1.5,0.8,1.7c0.2,0.2,0.5,0.3,0.9,0.3l0.2,0v0.7H93.9L93.9,32.3z M93.9,12.3v-0.4c0.3,0,0.5-0.1,0.7-0.3
		c0.2-0.2,0.2-0.5,0.2-0.8c0-0.4-0.1-0.7-0.2-0.9c-0.2-0.2-0.4-0.3-0.7-0.3l0,0V9.1l0.1,0c0.4,0,0.7,0.1,1,0.4
		c0.2,0.3,0.4,0.7,0.4,1.2c0,0.5-0.1,0.9-0.4,1.2c-0.2,0.3-0.6,0.4-1,0.4L93.9,12.3L93.9,12.3z M106,12.3L106,12.3V8.1h0.6v4.1H106
		L106,12.3z M97.8,9.2L97.8,9.2h0.6l-1.3,3.5c-0.1,0.3-0.2,0.5-0.4,0.6c-0.1,0.1-0.3,0.2-0.5,0.2c0,0-0.1,0-0.1,0
		c-0.1,0-0.1,0-0.2,0V13c0.1,0,0.1,0,0.2,0c0,0,0.1,0,0.1,0c0.1,0,0.2,0,0.2-0.1c0.1,0,0.1-0.1,0.1-0.2l0.1-0.4l-1.1-3.2h0.6
		l0.8,2.4L97.8,9.2L97.8,9.2z M109.3,31.5L109.3,31.5c-1.2,0.8-2.7,1.2-4.3,1.2c-2.1,0-3.7-0.7-4.9-2.2c-1.2-1.5-1.8-3.5-1.8-6.1
		c0-2.6,0.6-4.7,1.7-6.1c1.2-1.5,2.8-2.2,4.9-2.2c1.1,0,2.5,0.3,4.2,0.8v3h-1.1l0-0.2c0-0.2,0-0.4,0-0.6c0-0.7-0.3-1.2-0.8-1.7
		c-0.6-0.4-1.3-0.6-2.3-0.6c-1.4,0-2.5,0.7-3.3,2.1c-0.8,1.4-1.2,3.2-1.2,5.5c0,2.3,0.5,4.1,1.4,5.4c1,1.3,2.3,1.9,4,1.9
		c1.1,0,2.3-0.4,3.6-1.2V31.5z M93.9,9.1v0.5c-0.3,0-0.5,0.1-0.7,0.3c-0.2,0.2-0.2,0.5-0.2,0.8c0,0.4,0.1,0.7,0.2,0.9
		c0.2,0.2,0.4,0.3,0.7,0.3h0v0.4c-0.2,0-0.3,0-0.5-0.1c-0.2-0.1-0.3-0.2-0.4-0.4v0.4h-0.5l0,0V8.1H93v1.5c0.1-0.2,0.3-0.3,0.4-0.4
		C93.6,9.2,93.7,9.2,93.9,9.1L93.9,9.1z M93.9,28.7v3.7h-2.8v-0.7h0.2c0.9,0,1.3-0.1,1.3-0.4c0-0.4-0.1-1-0.4-1.7l-0.8-2.1h-2.9
		v-0.9h2.6l-2.6-7.2l0,0.1v-2.1l0.4-1h0.6L93.9,28.7z M88.4,17.3v2.1l-2.6,7.2l0,0h2.6v0.9h-2.9l0,0l-0.8,2.1
		c-0.3,0.8-0.5,1.4-0.5,1.7c0,0.3,0.4,0.4,1.2,0.4h0.1v0.7h-3.5v-0.7l0.2,0c0.5,0,0.8-0.1,0.9-0.2c0.1-0.1,0.4-0.7,0.8-1.9
		L88.4,17.3L88.4,17.3z M61.6,27.5v-0.9h2.6l-2.6-7.2l0,0.1v-2.1l0.4-1h0.6l4.8,13.4c0.4,1,0.6,1.5,0.8,1.7c0.2,0.2,0.5,0.3,0.9,0.3
		l0.2,0v0.7h-5v-0.7h0.2c0.9,0,1.3-0.1,1.3-0.4c0-0.4-0.1-1-0.4-1.7l-0.8-2.1H61.6L61.6,27.5z M80.7,32.3L80.7,32.3h-9.8v-0.7l0.2,0
		c0.7-0.1,1.2-0.2,1.3-0.4c0.1-0.2,0.2-0.8,0.2-1.7V19.3c0-1-0.1-1.6-0.2-1.7c-0.1-0.2-0.6-0.3-1.3-0.4l-0.2,0v-0.7h5.3v0.7l-0.2,0
		c-0.8,0.1-1.2,0.2-1.3,0.4c-0.1,0.2-0.2,0.8-0.2,1.7v10.3c0,1,0.1,1.5,0.2,1.6c0.1,0.1,0.6,0.2,1.4,0.2h1.4c1.1,0,1.7-0.1,1.9-0.2
		c0.2-0.1,0.3-0.8,0.3-1.8l0-0.2h1V32.3z M61.6,17.3v2.1L59,26.6l0,0h2.6v0.9h-2.9l0,0l-0.8,2.1c-0.3,0.8-0.5,1.4-0.5,1.7
		c0,0.3,0.4,0.4,1.2,0.4h0.1v0.7h-3.5v-0.7l0.2,0c0.5,0,0.8-0.1,0.9-0.2c0.1-0.1,0.4-0.7,0.8-1.9L61.6,17.3L61.6,17.3z M49.5,25.6
		v-0.8c0.5-0.2,0.9-0.5,1.2-0.9c0.6-0.7,0.9-1.8,0.9-3.3c0-1.2-0.2-2.1-0.7-2.6c-0.3-0.4-0.8-0.6-1.5-0.7v-0.8l0.2,0
		c2.6,0,3.9,1.4,3.9,4.2c0,1.7-0.5,3-1.4,3.8C51.6,25.1,50.7,25.4,49.5,25.6z M49.5,16.4v0.8c-0.3,0-0.5-0.1-0.8-0.1h-1.3V25l0,0H48
		c0.5,0,1-0.1,1.5-0.2v0.8c-0.5,0.1-1,0.1-1.6,0.1h-0.6v3.8c0,1,0.1,1.5,0.2,1.7c0.1,0.2,0.6,0.3,1.3,0.4l0.4,0v0.7h-5.5v-0.7l0.2,0
		c0.7-0.1,1.2-0.2,1.3-0.4c0.1-0.2,0.2-0.8,0.2-1.7V19.3c0-1-0.1-1.6-0.2-1.7c-0.1-0.2-0.6-0.3-1.3-0.4l-0.2,0v-0.7h4l1.3-0.1
		L49.5,16.4L49.5,16.4z M30.2,32.7v-1.3c0.2-0.1,0.4-0.2,0.5-0.3c0.3-0.3,0.4-1.1,0.4-2.5v-1.2c-0.3,0.3-0.6,0.4-0.9,0.6v-1.2
		c0.5-0.3,0.6-0.5,0.3-0.6c-0.1,0-0.2,0-0.3,0v-0.5l0.1,0c0.3,0,0.6,0,0.8,0l0,0h0l0,0h0l0,0h0l0,0h0h0l0,0h0l0,0h0h0h0l0,0l0,0h0.1
		h0h0h0h0h0h0h0h0h0h0h0h0h0h0l0,0l0,0h0h0l0,0h0l0,0h0h0l0,0h0l0,0l0,0l0,0h0l0,0l0,0l0,0h0l0,0h0l0,0h0l0,0l0,0l0,0l0,0l0,0l0,0h0
		l0,0l0,0l0,0l0,0h0l0,0h0l0,0l0,0l0,0l0,0h0l0,0l0,0l0,0l0,0l0,0l0,0h0l0.1,0h0l0,0l0,0h0l0,0l0,0l0,0l0,0l0,0l0,0l0,0l0,0l0,0l0,0
		l0,0l0,0l0,0l0,0l0,0l0,0l0,0l0,0c0.8-0.4-0.4-0.6-0.5-0.6c-0.3-0.1-1.2-0.8,0.3-0.6c0.6,0,1,0,1.8-0.4l0,0h0h0l0,0l0,0h0l0,0l0,0
		h0l0,0h0l0,0h0h0l0,0h0l0,0l0,0h0l0,0l0,0l0,0h0l0,0h0h0v0l0,0h0h0l0,0l0,0h0l0,0l0,0h0l0,0l0,0h0l0,0l0,0h0l0,0l0,0l0,0l0,0h0l0,0
		l0,0l0,0h0l0,0l0,0h0v0h0l0,0h0l0,0h0l0,0l0,0h0l0,0h0l0,0l0,0c0.3-0.3,0.4-0.8,0-0.9h0c-0.7,0-1.9-0.1-0.9-0.4l0.1,0l0,0h0l0,0
		l0.1,0h0l0,0h0l0.1,0l0,0l0,0l0,0l0.1,0l0,0l0,0l0,0l0,0l0,0l0,0l0,0l0,0l0,0l0,0l0,0l0,0l0,0l0,0l0,0l0,0l0,0l0,0l0,0l0,0l0,0l0,0
		l0,0l0,0l0,0l0,0h0l0,0l0,0l0,0l0,0l0,0l0,0l0,0l0,0c1.3-0.8,0.7-2,0-1.8l0,0h0l0,0l0,0l0,0l0,0c-1.2,0.4-1.1,0.5-2.3,0.6
		c-0.4,0,0-0.6,1.2-1.1l0,0l0,0l0,0l0,0l0,0h0l0,0l0,0l0,0l0,0l0,0l0,0l0.1,0l0,0l0,0l0,0l0,0l0,0l0,0l0,0l0,0l0,0l0,0l0,0l0,0l0,0
		l0,0l0,0l0,0l0,0l0,0l0,0l0,0l0,0l0,0l0,0l0,0l0,0l0,0l0,0l0,0l0,0l0,0l0,0l0,0h0l0,0l0,0l0,0l0,0l0,0h0l0,0l0,0l0,0l0,0l0,0v0l0,0
		l0,0l0,0l0,0l0,0l0,0l0,0l0,0l0,0l0,0l0,0l0,0l0,0l0,0l0,0c1.4-0.5,2.3-0.8,3-1.9c1.3-2.2-0.1-3.3-1.2-3c-0.3,0.2-1.1,0.7-1.7,0.8
		l0,0l0,0l0,0l0,0l0,0l0,0h0l0,0h0l0,0h0h0l0,0h0h0h0l0,0l0,0l0,0l0,0l0,0l0,0h0l0,0h0l0,0h0l0,0l0,0l0,0h0l0,0l0,0l0,0h0l0,0l0,0
		l0,0l0,0l0,0l0,0l0,0l0,0l0,0l0,0l0,0c0,0,0,0,0,0l0,0l0,0h0l0,0l0,0l0,0l0,0h0h0h0h0h0l0,0l0,0l0,0h0h0l0,0h0l0,0l0,0l0,0l0,0l0,0
		h0l0,0l0,0l0,0l0,0l0,0l0,0l0,0l0,0l0,0l0,0l0,0h0l0,0l0,0l0,0l0,0l0,0l0,0l0,0l0,0l0,0l0,0l0,0l0,0l0,0l0,0l0,0l0,0v0l0,0l0,0l0,0
		l0,0c0.6-0.3,1.3-1.2,1.7-2c0.3-0.6,0.4-2.3-0.2-2.3c-0.5,0.6-1,1.3-1.5,1.8l0,0l0,0l0,0l0,0l0,0l0,0l-0.1,0.1l0,0l0,0l0,0l0,0l0,0
		l0,0l0,0l0,0l0,0l0,0l0,0l0,0l0,0l0,0l0,0l0,0l0,0l0,0l0,0l0,0l0,0l0,0l0,0l0,0l0,0l0,0l0,0l0,0l0,0l0,0l0,0l0,0c0,0-0.1,0-0.1,0.1
		l0,0l0,0c0,0-0.1,0-0.1,0.1h0l0,0l0,0l0,0l0,0l0,0h0l0,0l0,0l0,0l0,0v0h0l0,0l0,0l0,0l0,0l0,0l0,0l0,0l0,0l0,0l0,0v0l0,0l0,0l0,0
		l0,0l0,0h0c0,0-0.1,0-0.1,0l0,0l0,0l0,0l0,0l0,0h0l0,0h0h0h0c-1,0,1.7-1,1.7-3.2l0,0l0,0l0,0l0,0v0l0,0l0,0v0l0,0l0,0l0,0l0,0l0,0
		l0,0v0l0,0l0,0l0,0l0,0l0,0l0,0v0l0,0v0v0l0,0l0,0l0,0l0,0l0,0l0,0v0l0,0l0,0v0l0,0v0l0,0v0l0,0v0l0,0v0l0,0v0v0l0,0v0l0,0v0v0v0
		l0,0l0,0v0v0l0,0v0l0,0v0l0,0v0v0v0l0,0v0v0l0,0v0v0v0l0,0v0c0-1.6-0.3-1.2-1.1,0l0,0l0,0l0,0l0,0l0,0l0,0l0,0l0,0l0,0l0,0l0,0l0,0
		l0,0l0,0l0,0l0,0l0,0l0,0l0,0l0,0l0,0l0,0l0,0l0,0l0,0l0,0l0,0l0,0l0,0l0,0l0,0l0,0l0,0l0,0l0,0l0,0l0,0l0,0l0,0l0,0l0,0l0,0l0,0
		l0,0l0,0l0,0l0,0l0,0l0,0l0,0l0,0l0,0l0,0l0,0l0,0l0,0l0,0l0,0l0,0l0,0l0,0l0,0l0,0l0,0l0,0l0,0l0,0l0,0l0,0l0,0l0,0l0,0
		c-0.1,0.1-0.2,0.2-0.3,0.4l0,0l0,0l0,0l0.1-0.2l0,0l0,0l0,0l0,0l0,0l0.1-0.2l0,0l0,0l0,0l0,0l0,0l0-0.1l0,0l0,0l0,0l0,0l0,0l0,0
		l0,0l0,0l0,0l0,0l0-0.1l0,0l0,0l0,0l0,0l0,0l0,0l0,0l0,0c1.2-5.1-0.1-6.8-0.4-5.7c-0.3,1.2-1.4,5.1-2.6,7.7V8.7
		c0.9-2.2,1.7-4.3,2-6.2c0.6-3.4,3,1.7,2.4,4.3c-0.2,0.8,1-0.4,1.4,0.9c0.2,0.6,0.1,1.2,0.1,1.6h1.4v0.4c0.7,0.4,0.8,1.8,0.2,3
		c-0.8,1.7,1.1,0.5,1.6,2.7c0.2,0.8-0.1,1.9-0.9,2.7c-1,0.9,0.7,0.1,0.4,1.3c-0.3,1.1-2.2,0.5-2.3,1.3c-0.1,0.6,1.1,0,1.4,0.7
		c0.5,1.1-1.9,1.5-1.8,1.7c0.2,0.3,0.2,0.7-0.2,1.1c-0.3,0.3-0.7,0.6-1,0.8v3.6c0,1.4,0.1,2.3,0.4,2.5c0.3,0.3,1.2,0.5,2.7,0.5
		l0.4,0v1H30.2z M30.2,8.7v2.5l-0.1,0.2l-0.2,0.4L29.9,12l0,0l-0.1,0.1v0l-0.1,0.1l0,0l-0.1,0.1l0,0l-0.1,0.1l0,0l-0.1,0.1l0,0
		l0,0.1l0,0l0,0.1l0,0l0,0.1l0,0l0,0.1l0,0l0,0.1l0,0.1l0,0.1l0,0.1l-0.1,0.2l0,0.1l0,0l0,0.1l0,0l0,0.1l0,0l0,0.1l0,0l0,0.1l0,0
		l0,0.1l0,0l0,0.1l0,0l-0.1,0.1l0,0l-0.1,0.1l0,0l-0.1,0.1l0,0l-0.1,0.1l0,0l0,0.1l0,0l0,0.1l0,0l0,0.1l0,0l0,0.1l0,0l0,0.1l0,0
		l0,0.1l0,0l0,0.1l0,0.1l0,0.1l0,0.1l0,0.1l0,0.1l0,0l0,0.1l0,0l0,0.1l0,0l0,0.1l0,0l0,0.1l0,0l0,0.1l0,0l0,0.1l0,0l-0.1,0.1l0,0
		l-0.1,0.1l0,0l-0.1,0.1l0,0l-0.1,0.1l0,0l-0.1,0.1l0,0l-0.1,0.1l0,0l0,0.1l0,0l0,0.1l0,0l0,0.1l0,0l0,0.1l0,0l0,0.1l0,0l0,0.1
		l0,0.1l0,0.1l0,0.1l0,0.1l0,0.1l0,0l0,0.1l0,0l0,0.1l0,0l-0.1,0.1l0,0l-0.1,0.1l0,0l-0.1,0.1l0,0l-0.1,0.1l0,0l-0.1,0.1l0,0
		l-0.1,0.1c0,0,0,0.1-0.1,0.1l0,0L26,19.5l0,0l-0.1,0.1l0,0l-0.1,0.1l0,0L25.7,20l0,0l-0.1,0.2l0,0l-0.1,0.2l0,0v0l-0.1,0.2l0,0
		l-0.1,0.2l0,0l0,0c-0.1,0.1-0.1,0.3-0.2,0.4l0,0l-0.1,0.2l0,0l0,0l0,0.1l0,0l0,0.1l0,0l0,0.1l0,0l0,0l-0.1,0.2l0,0l-0.1,0.2l0,0
		c0,0.1-0.1,0.3-0.1,0.4l0,0l0,0.1l0,0.1l0,0l-0.1,0.2l0,0l-0.1,0.2l0,0v0l0,0c0,0.1-0.1,0.3-0.1,0.4l0,0l-0.1,0.2l0,0.1l0,0.2l0,0
		l0,0.1l0,0.1l0,0l-0.1,0.2l0,0.1l0,0.2l0,0l0,0.2l0,0.1c-0.1,0.3-0.1,0.5-0.2,0.8l0,0.1l0,0.1l0,0l0,0.2l0,0.1l0,0.1l0,0.2l0,0
		l-0.1,0.2l0,0.1l0,0.2l0,0l0,0.2l0,0.1l0,0.1l0,0.2l0,0l0,0.1l0,0.1l0,0l0,0.2c-0.4,2-0.8,3.9-1,5.2c0.8-2.4,2-4.5,2.8-5.1
		c1.1-0.6,1.4-0.7,2.8-0.9c1-0.1,1.9-0.5,2.4-0.8V28c-0.7,0.3-1.7,0.4-2.9,0.5c-1.7,0.2-2.7,2.6-3.1,3c-1.3,1.8-2,4.5-2,5.7
		c0,0.4-1.4,1.4-1.3-0.2c0.3-2.6,0.6-5,1-7.5l-8.5-17.3v16.3c0,1.4,0.1,2.3,0.4,2.5c0.3,0.3,0.7,0.5,1.1,0.5l0.4,0v1H8.1v-1l0.4,0
		c1.5-0.1,2.4-0.3,2.7-0.5c0.3-0.3,0.4-1.1,0.4-2.5V13.4c0-1.4-0.1-2.3-0.4-2.6c-0.3-0.3-1.2-0.4-2.7-0.5l-0.4,0v-1h7l7.6,16
		l0.5-0.9c0.5-1.7,1.1-3.4,1.9-5C26.5,16.4,28.6,12.5,30.2,8.7L30.2,8.7z M30.2,25.6c-1,0-1.4,0.3-1.5,0.6c0.6,0,0.5-0.3,1.5-0.1
		V25.6L30.2,25.6z M30.2,31.4c-0.5,0.1-1.2,0.2-2.1,0.3l-0.3,0v1h2.5V31.4z"/>
</g>
</svg>
