<?xml version="1.0" encoding="utf-8"?>
<!-- Generator: Adobe Illustrator 20.1.0, SVG Export Plug-In . SVG Version: 6.00 Build 0)  -->
<svg version="1.1" id="圖層_1" xmlns="http://www.w3.org/2000/svg" xmlns:xlink="http://www.w3.org/1999/xlink" x="0px" y="0px"
	 viewBox="0 0 28.2 28.2" style="enable-background:new 0 0 28.2 28.2;" xml:space="preserve">
<style type="text/css">
	.st0{fill-rule:evenodd;clip-rule:evenodd;fill:#FFFFFF;}
	.st1{fill-rule:evenodd;clip-rule:evenodd;}
</style>
<g>
	<circle class="st0" cx="14.1" cy="14.1" r="9.2"/>
	<g>
		<path class="st1" d="M0,14.1C0,6.3,6.2,0,14.1,0c7.7,0,14.1,6.3,14.1,14.1c0,7.8-6.3,14.1-14,14.1C6.3,28.2,0,21.9,0,14.1z
			 M14.2,21.5c2-2.7,4-5.3,5.9-8c0.2-0.2,0.3-0.4,0.5-0.7c0.9-1.4,0.6-3.2-0.6-4.1c-1.1-0.8-2.6-0.7-3.7,0.3c-0.4,0.4-0.9,0.8-1.5,1
			c-1,0.3-1.9-0.1-2.6-0.9c-0.9-0.9-2-1.1-3.1-0.7C7.2,9.2,6.7,11.4,7.9,13c1.3,1.7,2.5,3.4,3.8,5.1C12.5,19.3,13.3,20.4,14.2,21.5z
			"/>
	</g>
</g>
</svg>
