<?xml version="1.0" encoding="utf-8"?>
<!-- Generator: Adobe Illustrator 20.1.0, SVG Export Plug-In . SVG Version: 6.00 Build 0)  -->
<svg version="1.1" id="圖層_1" xmlns="http://www.w3.org/2000/svg" xmlns:xlink="http://www.w3.org/1999/xlink" x="0px" y="0px"
	 viewBox="0 0 28.1 28.1" style="enable-background:new 0 0 28.1 28.1;" xml:space="preserve">
<style type="text/css">
	.st0{fill:#FFFFFF;}
</style>
<g>
	<circle cx="14" cy="14" r="14"/>
	<g>
		<path class="st0" d="M21.4,7.3c-1.9-1.7-4.1-2.5-6.7-2.7C12,4.4,9.4,5.1,7.1,6.9c-3.3,2.6-4,6.7-1.6,9.9c1.3,1.8,3.1,2.9,5.2,3.5
			c0.6,0.2,1.3,0.3,2,0.4c0.5,0.1,0.7,0.4,0.6,0.9c0,0.4-0.1,0.8-0.1,1.2c-0.1,0.8,0.2,1,0.9,0.6c0.6-0.3,1.1-0.6,1.6-0.9
			c2.3-1.5,4.6-3,6.5-5.2c1.1-1.3,1.8-2.8,1.9-4.8C23.9,10.5,23,8.7,21.4,7.3z M10.1,15.2c-0.6,0-1.2,0-1.8,0
			c-0.4,0-0.6-0.2-0.6-0.6c0-1.2,0-2.5,0-3.7c0-0.4,0.1-0.6,0.5-0.6c0.4,0,0.5,0.2,0.5,0.6c0,0.9,0,1.8,0,2.7c0,0.2,0,0.4,0,0.6
			c0.5,0,0.9,0,1.4,0c0.3,0,0.6,0.1,0.6,0.5C10.6,15.1,10.4,15.2,10.1,15.2z M12.2,14.7c0,0.2-0.3,0.5-0.5,0.5
			c-0.3,0-0.5-0.2-0.5-0.6c0-0.6,0-1.2,0-1.9c0-0.6,0-1.2,0-1.9c0-0.3,0.1-0.5,0.4-0.5c0.4,0,0.5,0.2,0.5,0.5
			C12.2,12.2,12.2,13.4,12.2,14.7z M16.6,15.2c-0.2,0-0.5-0.1-0.6-0.2c-0.5-0.7-1-1.4-1.6-2.1c-0.1-0.1-0.2-0.3-0.4-0.5
			c0,0.8,0,1.4,0,2c0,0.2,0,0.4-0.1,0.5c-0.1,0.2-0.4,0.3-0.5,0.3c-0.1,0-0.4-0.3-0.4-0.4c0-1.3,0-2.7,0-4c0-0.1,0.2-0.4,0.3-0.4
			c0.2,0,0.5,0.1,0.6,0.2c0.6,0.7,1.1,1.4,1.6,2.1c0.1,0.1,0.2,0.2,0.4,0.4c0-0.7,0-1.3,0-1.8c0-0.2,0-0.4,0-0.5
			c0-0.3,0.2-0.5,0.5-0.4c0.2,0.1,0.4,0.3,0.4,0.5c0,1.3,0,2.6,0,3.9C16.9,14.9,16.7,15.1,16.6,15.2z M20,12.3
			c0.3,0,0.6,0.1,0.6,0.5c0,0.4-0.2,0.5-0.6,0.5c-0.4,0-0.9,0-1.3,0c0,0.4,0,0.6,0,1c0.4,0,0.9,0,1.3,0c0.3,0,0.6,0.1,0.6,0.5
			c0,0.4-0.3,0.5-0.6,0.5c-0.6,0-1.1,0-1.7,0c-0.4,0-0.6-0.2-0.6-0.6c0-1.2,0-2.5,0-3.7c0-0.4,0.2-0.6,0.6-0.6c0.6,0,1.2,0,1.8,0
			c0.3,0,0.6,0.1,0.6,0.5c0,0.4-0.3,0.5-0.6,0.5c-0.4,0-0.8,0-1.3,0c0,0.4,0,0.6,0,1C19.1,12.3,19.6,12.3,20,12.3z"/>
	</g>
</g>
</svg>
