<?xml version="1.0" encoding="utf-8"?>
<!-- Generator: Adobe Illustrator 20.1.0, SVG Export Plug-In . SVG Version: 6.00 Build 0)  -->
<svg version="1.1" id="圖層_1" xmlns="http://www.w3.org/2000/svg" xmlns:xlink="http://www.w3.org/1999/xlink" x="0px" y="0px"
	 viewBox="0 0 72 24" style="enable-background:new 0 0 72 24;" xml:space="preserve">
<style type="text/css">
	.st0{fill:#231815;}
	.st1{fill-rule:evenodd;clip-rule:evenodd;fill:#5EA39A;}
	.st2{fill:#888888;}
</style>
<g>
	<g>
		<g>
			<path class="st0" d="M50.3,21h-0.4v-1.6c0-0.6-0.2-0.9-0.7-0.9c-0.2,0-0.4,0.1-0.6,0.3c-0.2,0.2-0.2,0.4-0.2,0.7V21H48v-4.2h0.4
				v1.8h0c0.2-0.4,0.5-0.5,0.9-0.5c0.6,0,1,0.4,1,1.2V21z"/>
			<path class="st0" d="M51.3,18.4c0.3-0.2,0.6-0.3,1-0.3c0.7,0,1,0.3,1,1V21h-0.4v-0.4h0c-0.2,0.3-0.5,0.5-0.9,0.5
				c-0.3,0-0.5-0.1-0.7-0.2c-0.2-0.1-0.2-0.3-0.2-0.6c0-0.5,0.3-0.8,0.9-0.9l0.9-0.1c0-0.5-0.2-0.7-0.6-0.7c-0.3,0-0.7,0.1-0.9,0.4
				V18.4z M52.1,19.7c-0.2,0-0.4,0.1-0.5,0.2c-0.1,0.1-0.1,0.2-0.1,0.4c0,0.1,0.1,0.3,0.2,0.3c0.1,0.1,0.2,0.1,0.4,0.1
				c0.2,0,0.4-0.1,0.6-0.2c0.1-0.2,0.2-0.4,0.2-0.6v-0.3L52.1,19.7z"/>
			<path class="st0" d="M54,17.2c0-0.1,0-0.1,0.1-0.2c0.1-0.1,0.1-0.1,0.2-0.1c0.1,0,0.1,0,0.2,0.1c0.1,0.1,0.1,0.1,0.1,0.2
				c0,0.1,0,0.1-0.1,0.2c-0.1,0.1-0.1,0.1-0.2,0.1c-0.1,0-0.1,0-0.2-0.1C54,17.3,54,17.2,54,17.2z M54.1,21v-2.8h0.4V21H54.1z"/>
			<path class="st0" d="M56.9,18.6c-0.1-0.1-0.2-0.1-0.3-0.1c-0.2,0-0.4,0.1-0.5,0.3c-0.1,0.2-0.2,0.4-0.2,0.7V21h-0.4v-2.8h0.4v0.6
				h0c0.1-0.2,0.2-0.4,0.3-0.5c0.1-0.1,0.3-0.2,0.4-0.2c0.1,0,0.2,0,0.3,0V18.6z"/>
		</g>
		<g>
			<path class="st0" d="M58.2,20.4c0.2,0.2,0.5,0.3,0.8,0.3c0.4,0,0.6-0.1,0.6-0.4c0-0.1,0-0.2-0.1-0.3c-0.1-0.1-0.3-0.2-0.5-0.3
				c-0.3-0.1-0.5-0.2-0.6-0.4c-0.1-0.1-0.2-0.3-0.2-0.5c0-0.2,0.1-0.4,0.3-0.6c0.2-0.2,0.5-0.2,0.8-0.2c0.2,0,0.5,0,0.7,0.1v0.4
				c-0.2-0.1-0.4-0.2-0.7-0.2c-0.2,0-0.3,0-0.4,0.1c-0.1,0.1-0.2,0.2-0.2,0.3c0,0.1,0,0.2,0.1,0.3c0.1,0.1,0.2,0.1,0.5,0.3
				c0.3,0.1,0.5,0.2,0.6,0.4c0.1,0.1,0.2,0.3,0.2,0.5c0,0.3-0.1,0.5-0.3,0.6c-0.2,0.1-0.5,0.2-0.8,0.2c-0.3,0-0.5-0.1-0.7-0.2V20.4z
				"/>
			<path class="st0" d="M61.1,20.6v1.7h-0.4v-4.1h0.4v0.5h0c0.2-0.4,0.6-0.6,1-0.6c0.4,0,0.6,0.1,0.9,0.4c0.2,0.3,0.3,0.6,0.3,1
				c0,0.5-0.1,0.8-0.3,1.1c-0.2,0.3-0.5,0.4-0.9,0.4C61.6,21.1,61.4,20.9,61.1,20.6L61.1,20.6z M61.1,19.9c0,0.2,0.1,0.4,0.2,0.6
				c0.2,0.2,0.4,0.2,0.6,0.2c0.3,0,0.5-0.1,0.7-0.3c0.2-0.2,0.2-0.5,0.2-0.9c0-0.3-0.1-0.6-0.2-0.8c-0.2-0.2-0.3-0.3-0.6-0.3
				c-0.3,0-0.5,0.1-0.6,0.3c-0.2,0.2-0.3,0.4-0.3,0.7V19.9z"/>
		</g>
		<g>
			<path class="st0" d="M64,18.4c0.3-0.2,0.6-0.3,1-0.3c0.7,0,1,0.3,1,1V21h-0.4v-0.4h0c-0.2,0.3-0.5,0.5-0.9,0.5
				c-0.3,0-0.5-0.1-0.7-0.2c-0.2-0.1-0.2-0.3-0.2-0.6c0-0.5,0.3-0.8,0.9-0.9l0.9-0.1c0-0.5-0.2-0.7-0.6-0.7c-0.3,0-0.7,0.1-0.9,0.4
				V18.4z M64.8,19.7c-0.2,0-0.4,0.1-0.5,0.2c-0.1,0.1-0.1,0.2-0.1,0.4c0,0.1,0.1,0.3,0.2,0.3c0.1,0.1,0.2,0.1,0.4,0.1
				c0.2,0,0.4-0.1,0.6-0.2c0.2-0.2,0.2-0.4,0.2-0.6v-0.3L64.8,19.7z"/>
		</g>
	</g>
	<g>
		<path class="st1" d="M6.6,5h2.7c0.1,0,0.2,0.1,0.2,0.2V16c0,0.1-0.1,0.2-0.2,0.2H6.6c-0.1,0-0.2-0.1-0.2-0.2V5.2
			C6.4,5.1,6.5,5,6.6,5 M11.4,1.7c4.9,0,8.9,4,8.9,8.9c0,2.1-0.7,4-1.9,5.5l0-0.1c-0.5,0.5-1.2,0.6-1.9,0.6c-1.6,0-2.9-1.2-2.8-2.8
			c0-0.4,0.1-0.8,0.3-1.2c0.2-0.4,0.6-0.8,1.2-1.3c0.6-0.5,1.1-1.1,1.3-1.6c0.3-0.5,0.4-1.1,0.4-1.7c0-0.6-0.1-1.1-0.3-1.6
			c-0.2-0.5-0.5-1-0.9-1.5h-1.9c0.6,0.4,1.1,0.8,1.4,1.4c0.3,0.5,0.5,1.1,0.5,1.7c0,0.4-0.1,0.8-0.3,1.2c-0.2,0.4-0.5,0.8-1,1.2
			l-0.2,0.2c-1.2,1.2-1.7,2.2-1.7,3.2c0,1,0.2,1.9,1,2.7c1,0.9,2.3,1.3,3.5,1.1c-1.5,1.2-3.4,1.9-5.5,1.9c-4.9,0-8.9-4-8.9-8.9
			C2.6,5.7,6.5,1.7,11.4,1.7"/>
	</g>
	<g>
		<g>
			<path class="st2" d="M61,6.6h5.2v0.7c-0.2,0-0.3-0.1-0.5-0.1h-3v3.4h2.9c0.2,0,0.4,0,0.6-0.1v0.7c-0.1,0-0.3,0-0.5,0h-2.9v3.6
				h2.9c0.2,0,0.4,0,0.6-0.1v0.8H61c0-0.1,0.1-0.3,0.1-0.4V7.1C61,6.9,61,6.7,61,6.6"/>
		</g>
		<g>
			<path class="st2" d="M49.6,8.7l-1.2,6.6c0,0,0,0,0,0.1c0,0,0,0.1,0,0.3h-0.9c0.1-0.2,0.1-0.3,0.1-0.4L49.2,7c0,0,0-0.1,0-0.1
				c0-0.1,0-0.2,0-0.3h1.5c0,0.1,0,0.3,0.1,0.3l2.7,7l2.7-7c0-0.1,0.1-0.2,0.1-0.2V6.6h1.5c0,0.1,0,0.1,0,0.2c0,0,0,0.1,0,0.1
				l1.3,8.3c0,0.1,0.1,0.2,0.1,0.4h-1.8c0-0.1,0-0.1,0-0.2c0,0,0-0.1,0-0.2l-1.1-6.7l-2.6,6.7c0,0.1-0.1,0.2-0.1,0.3v0.1h-1.4
				c0,0,0-0.1,0-0.1c0-0.1,0-0.1-0.1-0.3L49.6,8.7z"/>
		</g>
		<g>
			<path class="st2" d="M41.5,6.5c1.5,0,2.7,0.4,3.5,1.1c1,0.8,1.4,2,1.4,3.5c0,1.5-0.5,2.7-1.4,3.5c-0.9,0.8-2.1,1.2-3.6,1.2
				c-1.6,0-2.9-0.4-3.7-1.2c-0.8-0.8-1.3-2-1.3-3.5c0-0.9,0.2-1.8,0.6-2.5C37.9,7.2,39.3,6.5,41.5,6.5 M41.5,7.2
				c-1.1,0-1.9,0.4-2.5,1.1c-0.5,0.7-0.7,1.6-0.7,2.8c0,2.7,1.1,4,3.2,4c1.1,0,1.9-0.4,2.4-1.1c0.3-0.4,0.5-0.8,0.6-1.2
				c0.1-0.4,0.2-1,0.2-1.6C44.6,8.5,43.6,7.2,41.5,7.2"/>
		</g>
		<g>
			<path class="st2" d="M35,6.9v1.2c-0.4-0.3-0.8-0.6-1.2-0.7c-0.4-0.1-0.8-0.2-1.2-0.2c-1.1,0-1.9,0.4-2.5,1.1
				c-0.6,0.7-0.8,1.6-0.8,2.8c0,1.2,0.3,2.1,0.9,2.9c0.6,0.7,1.4,1.1,2.5,1.1c0.5,0,0.9-0.1,1.2-0.2c0.3-0.1,0.7-0.4,1.2-0.8v1.2
				c-0.5,0.2-0.9,0.3-1.3,0.4c-0.4,0.1-0.8,0.1-1.3,0.1c-1.6,0-2.8-0.4-3.6-1.2c-0.9-0.8-1.3-2-1.3-3.6c0-1,0.2-1.8,0.5-2.4
				c0.8-1.5,2.4-2.2,4.6-2.2C33.4,6.5,34.2,6.6,35,6.9"/>
		</g>
		<g>
			<path class="st2" d="M20.7,6.6h5v0.7c-0.2,0-0.3-0.1-0.5-0.1h-3v3.4h2.9c0.2,0,0.4,0,0.6-0.1v0.7c-0.1,0-0.3,0-0.5,0h-2.9v3.6
				h2.9c0.2,0,0.4,0,0.6-0.1v0.8h-5.2c0.6-1.4,0.9-3,0.9-4.7C21.5,9.4,21.2,7.9,20.7,6.6"/>
		</g>
	</g>
</g>
</svg>
